<svg width="30" height="30" viewBox="0 0 30 30" fill="none" xmlns="http://www.w3.org/2000/svg">
<rect width="30" height="30" rx="2" fill="#070720"/>
<path d="M15.0892 4.33C17.3092 4.33 19.1192 5.18 20.5192 6.88L20.4892 6.55C20.4892 6.45 20.4892 6.34 20.4892 6.22C20.4692 6.1 20.4592 6.03 20.4592 6.01C20.4192 5.57 20.3992 5.37 20.3992 5.41C20.3992 4.73 20.7192 4.39 21.3592 4.39C22.0392 4.39 22.3792 4.81 22.3792 5.65C22.3792 5.81 22.3392 6.29 22.2592 7.09C22.1592 8.09 22.1092 8.78 22.1092 9.16C22.1092 9.7 22.1392 10.25 22.1992 10.81L22.3192 11.95V12.25C22.3192 13.15 21.9592 13.6 21.2392 13.6C20.4592 13.6 20.0792 13.17 20.0992 12.31L20.1292 11.23C20.1692 9.79 19.7192 8.62 18.7792 7.72C17.8392 6.82 16.6092 6.37 15.0892 6.37C13.1092 6.37 11.5592 7.13 10.4392 8.65C9.31922 10.17 8.75922 12.27 8.75922 14.95C8.75922 17.69 9.32922 19.83 10.4692 21.37C11.6292 22.89 13.2392 23.65 15.2992 23.65C16.4192 23.65 17.4192 23.38 18.2992 22.84C19.1992 22.3 19.8292 21.59 20.1892 20.71C20.4292 20.13 20.5492 19.35 20.5492 18.37C20.5492 17.45 20.9292 16.99 21.6892 16.99C22.5092 16.99 22.9192 17.45 22.9192 18.37C22.9192 20.51 22.1792 22.26 20.6992 23.62C19.2192 24.98 17.3092 25.66 14.9692 25.66C12.2692 25.66 10.1092 24.71 8.48922 22.81C6.88922 20.91 6.08922 18.38 6.08922 15.22C6.08922 11.96 6.90922 9.33 8.54922 7.33C10.2092 5.33 12.3892 4.33 15.0892 4.33Z" fill="#FF5757"/>
</svg>
